<svg width="25" height="24" viewBox="0 0 25 24" fill="none" xmlns="http://www.w3.org/2000/svg">
<path d="M12.3545 17C12.6378 17 12.8755 16.904 13.0675 16.712C13.2588 16.5207 13.3545 16.2833 13.3545 16V13H16.3795C16.6628 13 16.8962 12.904 17.0795 12.712C17.2628 12.5207 17.3545 12.2833 17.3545 12C17.3545 11.7167 17.2585 11.479 17.0665 11.287C16.8752 11.0957 16.6378 11 16.3545 11H13.3545V7.975C13.3545 7.69167 13.2588 7.45833 13.0675 7.275C12.8755 7.09167 12.6378 7 12.3545 7C12.0712 7 11.8338 7.09567 11.6425 7.287C11.4505 7.479 11.3545 7.71667 11.3545 8V11H8.32949C8.04616 11 7.81283 11.0957 7.62949 11.287C7.44616 11.479 7.35449 11.7167 7.35449 12C7.35449 12.2833 7.45016 12.5207 7.64149 12.712C7.83349 12.904 8.07116 13 8.35449 13H11.3545V16.025C11.3545 16.3083 11.4505 16.5417 11.6425 16.725C11.8338 16.9083 12.0712 17 12.3545 17ZM12.3545 22C10.9712 22 9.67116 21.7373 8.45449 21.212C7.23783 20.6873 6.17949 19.975 5.27949 19.075C4.37949 18.175 3.66716 17.1167 3.14249 15.9C2.61716 14.6833 2.35449 13.3833 2.35449 12C2.35449 10.6167 2.61716 9.31667 3.14249 8.1C3.66716 6.88333 4.37949 5.825 5.27949 4.925C6.17949 4.025 7.23783 3.31233 8.45449 2.787C9.67116 2.26233 10.9712 2 12.3545 2C13.7378 2 15.0378 2.26233 16.2545 2.787C17.4712 3.31233 18.5295 4.025 19.4295 4.925C20.3295 5.825 21.0418 6.88333 21.5665 8.1C22.0918 9.31667 22.3545 10.6167 22.3545 12C22.3545 13.3833 22.0918 14.6833 21.5665 15.9C21.0418 17.1167 20.3295 18.175 19.4295 19.075C18.5295 19.975 17.4712 20.6873 16.2545 21.212C15.0378 21.7373 13.7378 22 12.3545 22ZM12.3545 20C14.5712 20 16.4588 19.221 18.0175 17.663C19.5755 16.1043 20.3545 14.2167 20.3545 12C20.3545 9.78333 19.5755 7.89567 18.0175 6.337C16.4588 4.779 14.5712 4 12.3545 4C10.1378 4 8.25049 4.779 6.69249 6.337C5.13383 7.89567 4.35449 9.78333 4.35449 12C4.35449 14.2167 5.13383 16.1043 6.69249 17.663C8.25049 19.221 10.1378 20 12.3545 20Z" fill="black"/>
</svg>
