<svg width="1920" height="1080" viewBox="0 0 1920 1080" fill="none" xmlns="http://www.w3.org/2000/svg">
<g clip-path="url(#clip0_51_245)">
<rect width="1920" height="1080" fill="#36225D"/>
<rect width="1915" height="1080" fill="#36225D"/>
<path d="M57.9234 492.353L58.1169 503.379C58.175 506.693 55.5361 509.423 52.2227 509.477L8.41404 510.191C5.10065 510.245 2.36747 507.602 2.30932 504.288L2.11586 493.262C2.05771 489.947 4.6966 487.217 8.00999 487.163L51.8187 486.45C55.1321 486.396 57.8653 489.038 57.9234 492.353Z" fill="white" fill-opacity="0.1"/>
<path d="M44.3755 456.887C45.3631 451.513 52.4363 450.157 55.352 454.784L57.8481 458.745L64.008 468.519C64.8085 469.79 65.1046 471.314 64.8377 472.79L59.2928 503.461C58.7021 506.728 55.5697 508.892 52.3038 508.287L41.4028 506.269C38.1436 505.666 35.9869 502.535 36.5861 499.276L44.3755 456.887Z" fill="white" fill-opacity="0.1"/>
<path d="M131.498 447.256L86.676 394.33C78.1031 384.206 62.9574 382.941 52.8472 391.503L33.6258 407.781C23.5156 416.343 22.2695 431.49 30.8424 441.613L75.6642 494.54C84.2372 504.663 99.3829 505.929 109.493 497.367L128.714 481.089C138.825 472.527 140.071 457.38 131.498 447.256Z" fill="white" fill-opacity="0.1"/>
<path d="M59.712 385.689C66.0308 380.338 75.4969 381.129 80.855 387.456L85.7059 393.184L29.8723 440.467L25.0214 434.739C19.6633 428.413 20.4422 418.945 26.761 413.594L59.712 385.689Z" fill="white" fill-opacity="0.1"/>
<path d="M0.078091 480.359L0.72532 517.249C0.768614 519.717 2.80366 521.685 5.27071 521.644C7.73776 521.604 9.70261 519.571 9.65932 517.104L9.01209 480.213C8.9688 477.746 6.93375 475.778 4.4667 475.818C1.99965 475.858 0.0347971 477.891 0.078091 480.359Z" fill="white" fill-opacity="0.1"/>
<path d="M95.3131 425.85C92.9075 413.702 108.232 406.328 116.238 415.782L148.514 453.895C152.801 458.956 152.178 466.53 147.123 470.811L132.707 483.019C127.652 487.3 120.079 486.667 115.792 481.606L105.485 469.435C104.164 467.875 103.263 466.005 102.866 464.001L95.3131 425.85Z" fill="white" fill-opacity="0.1"/>
<path d="M164.464 424.454L161.359 420.788L130.925 446.561L134.03 450.227L164.464 424.454Z" fill="white" fill-opacity="0.1"/>
<path d="M180.54 425.651C180.54 425.651 180.112 430.858 175.416 434.834C170.72 438.811 165.514 438.376 165.514 438.376M190.953 426.521C190.953 426.521 190.239 435.199 181.787 442.357C173.335 449.515 164.657 448.79 164.657 448.79M163.021 404.963C163.021 404.963 157.814 404.528 153.118 408.505C148.423 412.481 147.994 417.688 147.994 417.688M163.877 394.549C163.877 394.549 155.2 393.824 146.748 400.982C138.295 408.14 137.581 416.818 137.581 416.818" fill="white" fill-opacity="0.1"/>
<path d="M180.54 425.651C180.54 425.651 180.112 430.858 175.416 434.834C170.72 438.811 165.514 438.376 165.514 438.376M190.953 426.521C190.953 426.521 190.239 435.199 181.787 442.357C173.335 449.515 164.657 448.79 164.657 448.79M163.021 404.963C163.021 404.963 157.814 404.528 153.118 408.505C148.423 412.481 147.994 417.688 147.994 417.688M163.877 394.549C163.877 394.549 155.2 393.824 146.748 400.982C138.295 408.14 137.581 416.818 137.581 416.818" stroke="white" stroke-opacity="0.1" stroke-width="12.3125" stroke-linecap="round" stroke-linejoin="round"/>
<path d="M162.389 423.26C162.811 423.759 163.414 424.07 164.065 424.124C164.716 424.178 165.362 423.972 165.86 423.55C166.358 423.128 166.668 422.526 166.721 421.874C166.775 421.224 166.568 420.578 166.145 420.079C165.723 419.58 165.12 419.269 164.469 419.215C163.818 419.161 163.173 419.367 162.674 419.789C162.176 420.211 161.866 420.813 161.813 421.464C161.759 422.115 161.966 422.761 162.389 423.26Z" fill="white" fill-opacity="0.1" stroke="white" stroke-opacity="0.1" stroke-width="12.3125" stroke-linecap="round" stroke-linejoin="round"/>
<path d="M1788.8 57.7577L1777.77 57.842C1774.46 57.8673 1771.75 55.2015 1771.73 51.8878L1771.45 8.07416C1771.43 4.7604 1774.1 2.05352 1777.41 2.02819L1788.44 1.94389C1791.76 1.91856 1794.46 4.58436 1794.48 7.89812L1794.76 51.7117C1794.78 55.0255 1792.11 57.7324 1788.8 57.7577Z" fill="white" fill-opacity="0.1"/>
<path d="M1824.4 44.5612C1829.76 45.602 1831.05 52.6883 1826.39 55.558L1822.4 58.0147L1812.57 64.0776C1811.29 64.8654 1809.76 65.1464 1808.29 64.865L1777.68 59.0167C1774.42 58.3937 1772.28 55.24 1772.92 51.9802L1775.05 41.0998C1775.68 37.8467 1778.83 35.7211 1782.09 36.3525L1824.4 44.5612Z" fill="white" fill-opacity="0.1"/>
<path d="M1833.16 131.775L1886.53 87.4793C1896.74 79.007 1898.15 63.8746 1889.69 53.6802L1873.61 34.2986C1865.14 24.1041 1850.01 22.708 1839.8 31.1803L1786.43 75.476C1776.23 83.9483 1774.81 99.0807 1783.27 109.275L1799.36 128.657C1807.82 138.851 1822.96 140.247 1833.16 131.775Z" fill="white" fill-opacity="0.1"/>
<path d="M1895.44 60.6022C1900.73 66.9737 1899.84 76.4315 1893.46 81.7267L1887.69 86.5206L1840.96 30.2216L1846.73 25.4277C1853.11 20.1325 1862.57 21.0051 1867.86 27.3765L1895.44 60.6022Z" fill="white" fill-opacity="0.1"/>
<path d="M1801.36 0.0341541L1764.47 0.316129C1762 0.33499 1760.01 2.35045 1760.03 4.81778C1760.04 7.28511 1762.06 9.26999 1764.53 9.25113L1801.42 8.96916C1803.89 8.9503 1805.88 6.93483 1805.86 4.4675C1805.84 2.00017 1803.83 0.0152925 1801.36 0.0341541Z" fill="white" fill-opacity="0.1"/>
<path d="M1854.93 95.8042C1867.1 93.519 1874.32 108.916 1864.79 116.828L1826.36 148.725C1821.25 152.961 1813.69 152.263 1809.46 147.166L1797.39 132.63C1793.16 127.533 1793.87 119.966 1798.97 115.73L1811.24 105.544C1812.82 104.239 1814.7 103.356 1816.7 102.979L1854.93 95.8042Z" fill="white" fill-opacity="0.1"/>
<path d="M1855.64 164.965L1859.33 161.897L1833.86 131.209L1830.17 134.277L1855.64 164.965Z" fill="white" fill-opacity="0.1"/>
<path d="M1854.28 181.028C1854.28 181.028 1849.08 180.548 1845.15 175.814C1841.22 171.079 1841.71 165.877 1841.71 165.877M1853.31 191.432C1853.31 191.432 1844.64 190.632 1837.56 182.11C1830.49 173.587 1831.3 164.917 1831.3 164.917M1875.14 163.714C1875.14 163.714 1875.63 158.513 1871.7 153.778C1867.77 149.043 1862.57 148.563 1862.57 148.563M1885.55 164.674C1885.55 164.674 1886.36 156.004 1879.29 147.482C1872.21 138.959 1863.54 138.159 1863.54 138.159" fill="white" fill-opacity="0.1"/>
<path d="M1854.28 181.028C1854.28 181.028 1849.08 180.548 1845.15 175.814C1841.22 171.079 1841.71 165.877 1841.71 165.877M1853.31 191.432C1853.31 191.432 1844.64 190.632 1837.56 182.11C1830.49 173.587 1831.3 164.917 1831.3 164.917M1875.14 163.714C1875.14 163.714 1875.63 158.513 1871.7 153.778C1867.77 149.043 1862.57 148.563 1862.57 148.563M1885.55 164.674C1885.55 164.674 1886.36 156.004 1879.29 147.482C1872.21 138.959 1863.54 138.159 1863.54 138.159" stroke="white" stroke-opacity="0.1" stroke-width="12.3125" stroke-linecap="round" stroke-linejoin="round"/>
<path d="M1856.85 162.902C1856.35 163.319 1856.03 163.919 1855.97 164.569C1855.91 165.22 1856.11 165.867 1856.53 166.37C1856.94 166.872 1857.54 167.188 1858.19 167.248C1858.85 167.308 1859.49 167.107 1860 166.69C1860.5 166.272 1860.82 165.672 1860.88 165.022C1860.94 164.372 1860.74 163.724 1860.32 163.222C1859.9 162.719 1859.3 162.404 1858.65 162.344C1858 162.283 1857.36 162.484 1856.85 162.902Z" fill="white" fill-opacity="0.1" stroke="white" stroke-opacity="0.1" stroke-width="12.3125" stroke-linecap="round" stroke-linejoin="round"/>
<path d="M1862.33 945.99L1862.02 934.966C1861.92 931.653 1864.53 928.894 1867.84 928.803L1911.64 927.609C1914.95 927.519 1917.72 930.132 1917.81 933.445L1918.13 944.468C1918.22 947.782 1915.61 950.541 1912.3 950.631L1868.5 951.825C1865.19 951.916 1862.43 949.303 1862.33 945.99Z" fill="white" fill-opacity="0.1"/>
<path d="M1876.27 981.304C1875.34 986.69 1868.28 988.122 1865.32 983.528L1862.78 979.595L1856.51 969.888C1855.7 968.627 1855.38 967.106 1855.63 965.627L1860.84 934.897C1861.4 931.624 1864.5 929.426 1867.78 929.995L1878.7 931.893C1881.96 932.46 1884.16 935.567 1883.59 938.833L1876.27 981.304Z" fill="white" fill-opacity="0.1"/>
<path d="M1789.26 991.89L1834.66 1044.32C1843.34 1054.35 1858.5 1055.45 1868.51 1046.78L1887.56 1030.29C1897.57 1021.62 1898.65 1006.46 1889.97 996.429L1844.57 943.997C1835.88 933.969 1820.73 932.869 1810.71 941.542L1791.67 958.03C1781.65 966.702 1780.57 981.862 1789.26 991.89Z" fill="white" fill-opacity="0.1"/>
<path d="M1861.71 1052.67C1855.45 1058.09 1845.98 1057.4 1840.55 1051.13L1835.64 1045.46L1890.95 997.564L1895.86 1003.24C1901.29 1009.51 1900.62 1018.98 1894.36 1024.4L1861.71 1052.67Z" fill="white" fill-opacity="0.1"/>
<path d="M1920.3 957.348L1919.25 920.467C1919.18 918 1917.13 916.055 1914.66 916.122C1912.19 916.189 1910.25 918.243 1910.32 920.71L1911.37 957.591C1911.44 960.058 1913.5 962.004 1915.97 961.936C1918.43 961.869 1920.37 959.815 1920.3 957.348Z" fill="white" fill-opacity="0.1"/>
<path d="M1825.67 1012.9C1828.21 1025.02 1812.97 1032.56 1804.86 1023.2L1772.17 985.439C1767.83 980.425 1768.37 972.845 1773.37 968.509L1787.66 956.143C1792.66 951.807 1800.24 952.357 1804.58 957.371L1815.02 969.428C1816.36 970.973 1817.28 972.833 1817.7 974.833L1825.67 1012.9Z" fill="white" fill-opacity="0.1"/>
<path d="M1756.54 1015.05L1759.69 1018.69L1789.84 992.58L1786.69 988.948L1756.54 1015.05Z" fill="white" fill-opacity="0.1"/>
<path d="M1740.45 1014.03C1740.45 1014.03 1740.83 1008.82 1745.48 1004.79C1750.13 1000.77 1755.34 1001.14 1755.34 1001.14M1730.03 1013.28C1730.03 1013.28 1730.65 1004.59 1739.02 997.342C1747.4 990.091 1756.08 990.721 1756.08 990.721M1758.2 1034.53C1758.2 1034.53 1763.41 1034.91 1768.06 1030.88C1772.71 1026.85 1773.09 1021.64 1773.09 1021.64M1757.46 1044.95C1757.46 1044.95 1766.14 1045.58 1774.52 1038.33C1782.89 1031.08 1783.51 1022.39 1783.51 1022.39" fill="white" fill-opacity="0.1"/>
<path d="M1740.45 1014.03C1740.45 1014.03 1740.83 1008.82 1745.48 1004.79C1750.13 1000.77 1755.34 1001.14 1755.34 1001.14M1730.03 1013.28C1730.03 1013.28 1730.65 1004.59 1739.02 997.342C1747.4 990.091 1756.08 990.721 1756.08 990.721M1758.2 1034.53C1758.2 1034.53 1763.41 1034.91 1768.06 1030.88C1772.71 1026.85 1773.09 1021.64 1773.09 1021.64M1757.46 1044.95C1757.46 1044.95 1766.14 1045.58 1774.52 1038.33C1782.89 1031.08 1783.51 1022.39 1783.51 1022.39" stroke="white" stroke-opacity="0.1" stroke-width="12.3125" stroke-linecap="round" stroke-linejoin="round"/>
<path d="M1758.63 1016.22C1758.2 1015.73 1757.6 1015.43 1756.95 1015.38C1756.29 1015.33 1755.65 1015.55 1755.16 1015.97C1754.66 1016.4 1754.36 1017.01 1754.31 1017.66C1754.27 1018.31 1754.48 1018.95 1754.91 1019.45C1755.34 1019.94 1755.94 1020.25 1756.6 1020.29C1757.25 1020.34 1757.89 1020.13 1758.38 1019.7C1758.88 1019.27 1759.18 1018.67 1759.23 1018.01C1759.27 1017.36 1759.06 1016.72 1758.63 1016.22Z" fill="white" fill-opacity="0.1" stroke="white" stroke-opacity="0.1" stroke-width="12.3125" stroke-linecap="round" stroke-linejoin="round"/>
<path d="M606.263 1020.65L617.279 1021.17C620.59 1021.32 623.146 1024.13 622.987 1027.44L620.886 1071.21C620.727 1074.52 617.914 1077.07 614.603 1076.92L603.588 1076.4C600.276 1076.25 597.721 1073.44 597.88 1070.13L599.981 1026.37C600.139 1023.06 602.952 1020.5 606.263 1020.65Z" fill="white" fill-opacity="0.1"/>
<path d="M570.001 1031.9C564.701 1030.57 563.803 1023.42 568.607 1020.81L572.72 1018.57L582.87 1013.05C584.189 1012.33 585.729 1012.14 587.185 1012.5L617.436 1020C620.659 1020.8 622.617 1024.06 621.804 1027.28L619.091 1038.03C618.28 1041.25 615.016 1043.2 611.802 1042.39L570.001 1031.9Z" fill="white" fill-opacity="0.1"/>
<path d="M565.984 944.335L510.288 985.667C499.636 993.572 497.4 1008.61 505.295 1019.24L520.306 1039.47C528.201 1050.11 543.237 1052.33 553.89 1044.42L609.585 1003.09C620.238 995.184 622.473 980.151 614.578 969.512L599.568 949.285C591.672 938.646 576.636 936.43 565.984 944.335Z" fill="white" fill-opacity="0.1"/>
<path d="M499.935 1012.02C495 1005.37 496.397 995.975 503.055 991.034L509.083 986.561L552.684 1045.32L546.657 1049.79C539.999 1054.73 530.601 1053.34 525.667 1046.69L499.935 1012.02Z" fill="white" fill-opacity="0.1"/>
<path d="M590.581 1077.61L627.437 1079.33C629.902 1079.45 631.996 1077.54 632.115 1075.08C632.233 1072.61 630.33 1070.52 627.865 1070.41L591.009 1068.68C588.544 1068.57 586.45 1070.47 586.331 1072.94C586.213 1075.4 588.116 1077.49 590.581 1077.61Z" fill="white" fill-opacity="0.1"/>
<path d="M542.299 979.071C530.021 980.692 523.647 964.925 533.595 957.543L573.701 927.78C579.027 923.827 586.546 924.935 590.493 930.255L601.751 945.425C605.698 950.744 604.581 958.261 599.254 962.214L586.447 971.718C584.805 972.936 582.881 973.716 580.855 973.983L542.299 979.071Z" fill="white" fill-opacity="0.1"/>
<path d="M545.344 909.973L541.486 912.836L565.253 944.862L569.11 941.999L545.344 909.973Z" fill="white" fill-opacity="0.1"/>
<path d="M547.571 894.007C547.571 894.007 552.739 894.769 556.406 899.71C560.073 904.652 559.305 909.82 559.305 909.82M549.108 883.672C549.108 883.672 557.722 884.941 564.323 893.836C570.923 902.73 569.643 911.343 569.643 911.343M525.801 910.163C525.801 910.163 525.033 915.33 528.7 920.272C532.366 925.213 537.535 925.975 537.535 925.975M515.463 908.639C515.463 908.639 514.183 917.252 520.783 926.146C527.384 935.041 535.998 936.311 535.998 936.311" fill="white" fill-opacity="0.1"/>
<path d="M547.571 894.007C547.571 894.007 552.739 894.769 556.406 899.71C560.073 904.652 559.305 909.82 559.305 909.82M549.108 883.672C549.108 883.672 557.722 884.941 564.323 893.836C570.923 902.73 569.643 911.343 569.643 911.343M525.801 910.163C525.801 910.163 525.033 915.33 528.7 920.272C532.366 925.213 537.535 925.975 537.535 925.975M515.463 908.639C515.463 908.639 514.183 917.252 520.783 926.146C527.384 935.041 535.998 936.311 535.998 936.311" stroke="white" stroke-opacity="0.1" stroke-width="12.3125" stroke-linecap="round" stroke-linejoin="round"/>
<path d="M544.02 951.968C544.545 951.578 544.894 950.996 544.99 950.35C545.086 949.704 544.921 949.047 544.532 948.523C544.143 947.998 543.562 947.65 542.915 947.555C542.269 947.46 541.611 947.625 541.086 948.015C540.562 948.404 540.213 948.986 540.117 949.632C540.021 950.278 540.185 950.936 540.574 951.46C540.963 951.984 541.545 952.332 542.191 952.427C542.837 952.523 543.495 952.357 544.02 951.968Z" fill="white" fill-opacity="0.1" stroke="white" stroke-opacity="0.1" stroke-width="12.3125" stroke-linecap="round" stroke-linejoin="round"/>
<path d="M699.61 59.9939L688.585 60.2348C685.271 60.3073 682.53 57.6801 682.461 54.367L681.559 10.5618C681.491 7.24867 684.122 4.50413 687.436 4.43171L698.461 4.19076C701.775 4.11834 704.517 6.74545 704.585 10.0586L705.487 53.8638C705.555 57.1769 702.924 59.9215 699.61 59.9939Z" fill="white" fill-opacity="0.1"/>
<path d="M699.61 59.9939L688.585 60.2348C685.271 60.3073 682.53 57.6801 682.461 54.367L681.559 10.5618C681.491 7.24867 684.122 4.50413 687.436 4.43171L698.461 4.19076C701.775 4.11834 704.517 6.74545 704.585 10.0586L705.487 53.8638C705.555 57.1769 702.924 59.9215 699.61 59.9939Z" fill="white" fill-opacity="0.1"/>
<path d="M735.017 46.293C740.395 47.2574 741.781 54.3247 737.167 57.2603L733.217 59.7734L723.469 65.9754C722.202 66.7813 720.679 67.084 719.202 66.8235L688.508 61.4107C685.238 60.8341 683.061 57.7111 683.651 54.4426L685.622 43.533C686.211 40.2712 689.333 38.101 692.595 38.6861L735.017 46.293Z" fill="white" fill-opacity="0.1"/>
<path d="M735.017 46.293C740.395 47.2574 741.781 54.3247 737.167 57.2603L733.217 59.7734L723.469 65.9754C722.202 66.7813 720.679 67.084 719.202 66.8235L688.508 61.4107C685.238 60.8341 683.061 57.7111 683.651 54.4426L685.622 43.533C686.211 40.2712 689.333 38.101 692.595 38.6861L735.017 46.293Z" fill="white" fill-opacity="0.1"/>
<path d="M745.024 133.373L797.757 88.324C807.843 79.7075 809.043 64.5566 800.438 54.4833L784.078 35.3322C775.472 25.259 760.32 24.0781 750.233 32.6946L697.5 77.7439C687.414 86.3604 686.214 101.511 694.819 111.585L711.18 130.736C719.785 140.809 734.937 141.99 745.024 133.373Z" fill="white" fill-opacity="0.1"/>
<path d="M745.024 133.373L797.757 88.324C807.843 79.7075 809.043 64.5566 800.438 54.4833L784.078 35.3322C775.472 25.259 760.32 24.0781 750.233 32.6946L697.5 77.7439C687.414 86.3604 686.214 101.511 694.819 111.585L711.18 130.736C719.785 140.809 734.937 141.99 745.024 133.373Z" fill="white" fill-opacity="0.1"/>
<path d="M806.281 61.323C811.659 67.6187 810.909 77.0882 804.605 82.4734L798.898 87.3489L751.375 31.7195L757.082 26.844C763.386 21.4587 772.856 22.1968 778.234 28.4925L806.281 61.323Z" fill="white" fill-opacity="0.1"/>
<path d="M806.281 61.323C811.659 67.6187 810.909 77.0882 804.605 82.4734L798.898 87.3489L751.375 31.7195L757.082 26.844C763.386 21.4587 772.856 22.1968 778.234 28.4925L806.281 61.323Z" fill="white" fill-opacity="0.1"/>
<path d="M711.355 2.09763L674.468 2.90374C672 2.95766 670.041 5.00116 670.092 7.46802C670.143 9.93488 672.184 11.891 674.652 11.837L711.539 11.0309C714.006 10.977 715.965 8.9335 715.914 6.46665C715.864 3.99979 713.822 2.04371 711.355 2.09763Z" fill="white" fill-opacity="0.1"/>
<path d="M766.273 97.097C778.411 94.6391 785.851 109.932 776.432 117.978L738.458 150.419C733.415 154.727 725.839 154.136 721.536 149.1L709.266 134.736C704.963 129.7 705.563 122.124 710.606 117.816L722.733 107.457C724.287 106.129 726.153 105.22 728.156 104.814L766.273 97.097Z" fill="white" fill-opacity="0.1"/>
<path d="M766.273 97.097C778.411 94.6391 785.851 109.932 776.432 117.978L738.458 150.419C733.415 154.727 725.839 154.136 721.536 149.1L709.266 134.736C704.963 129.7 705.563 122.124 710.606 117.816L722.733 107.457C724.287 106.129 726.153 105.22 728.156 104.814L766.273 97.097Z" fill="white" fill-opacity="0.1"/>
<path d="M767.968 166.241L771.62 163.12L745.716 132.798L742.063 135.918L767.968 166.241Z" fill="white" fill-opacity="0.1"/>
<path d="M767.968 166.241L771.62 163.12L745.716 132.798L742.063 135.918L767.968 166.241Z" fill="white" fill-opacity="0.1"/>
<path d="M766.84 182.322C766.84 182.322 761.632 181.916 757.635 177.237C753.638 172.559 754.051 167.351 754.051 167.351M766.015 192.738C766.015 192.738 757.334 192.062 750.139 183.641C742.945 175.219 743.633 166.539 743.633 166.539M787.452 164.713C787.452 164.713 787.865 159.505 783.868 154.826C779.871 150.148 774.663 149.742 774.663 149.742M797.87 165.525C797.87 165.525 798.558 156.845 791.364 148.423C784.169 140.002 775.488 139.325 775.488 139.325" fill="white" fill-opacity="0.1"/>
<path d="M766.84 182.322C766.84 182.322 761.632 181.916 757.635 177.237C753.638 172.559 754.051 167.351 754.051 167.351M766.015 192.738C766.015 192.738 757.334 192.062 750.139 183.641C742.945 175.219 743.633 166.539 743.633 166.539M787.452 164.713C787.452 164.713 787.865 159.505 783.868 154.826C779.871 150.148 774.663 149.742 774.663 149.742M797.87 165.525C797.87 165.525 798.558 156.845 791.364 148.423C784.169 140.002 775.488 139.325 775.488 139.325" stroke="white" stroke-opacity="0.1" stroke-width="12.3125" stroke-linecap="round" stroke-linejoin="round"/>
<path d="M766.84 182.322C766.84 182.322 761.632 181.916 757.635 177.237C753.638 172.559 754.051 167.351 754.051 167.351M766.015 192.738C766.015 192.738 757.334 192.062 750.139 183.641C742.945 175.219 743.633 166.539 743.633 166.539M787.452 164.713C787.452 164.713 787.865 159.505 783.868 154.826C779.871 150.148 774.663 149.742 774.663 149.742M797.87 165.525C797.87 165.525 798.558 156.845 791.364 148.423C784.169 140.002 775.488 139.325 775.488 139.325" fill="white" fill-opacity="0.1"/>
<path d="M766.84 182.322C766.84 182.322 761.632 181.916 757.635 177.237C753.638 172.559 754.051 167.351 754.051 167.351M766.015 192.738C766.015 192.738 757.334 192.062 750.139 183.641C742.945 175.219 743.633 166.539 743.633 166.539M787.452 164.713C787.452 164.713 787.865 159.505 783.868 154.826C779.871 150.148 774.663 149.742 774.663 149.742M797.87 165.525C797.87 165.525 798.558 156.845 791.364 148.423C784.169 140.002 775.488 139.325 775.488 139.325" stroke="white" stroke-opacity="0.1" stroke-width="12.3125" stroke-linecap="round" stroke-linejoin="round"/>
<path d="M769.152 164.16C768.655 164.585 768.347 165.189 768.296 165.84C768.244 166.492 768.453 167.136 768.877 167.633C769.301 168.129 769.905 168.436 770.557 168.487C771.208 168.538 771.853 168.328 772.35 167.903C772.847 167.479 773.155 166.874 773.207 166.223C773.258 165.572 773.049 164.927 772.625 164.431C772.201 163.935 771.597 163.628 770.946 163.577C770.294 163.526 769.649 163.736 769.152 164.16Z" fill="white" fill-opacity="0.1" stroke="white" stroke-opacity="0.1" stroke-width="12.3125" stroke-linecap="round" stroke-linejoin="round"/>
<path d="M769.152 164.16C768.655 164.585 768.347 165.189 768.296 165.84C768.244 166.492 768.453 167.136 768.877 167.633C769.301 168.129 769.905 168.436 770.557 168.487C771.208 168.538 771.853 168.328 772.35 167.903C772.847 167.479 773.155 166.874 773.207 166.223C773.258 165.572 773.049 164.927 772.625 164.431C772.201 163.935 771.597 163.628 770.946 163.577C770.294 163.526 769.649 163.736 769.152 164.16Z" fill="white" fill-opacity="0.1" stroke="white" stroke-opacity="0.1" stroke-width="12.3125" stroke-linecap="round" stroke-linejoin="round"/>
</g>
<defs>
<clipPath id="clip0_51_245">
<rect width="1920" height="1080" fill="white"/>
</clipPath>
</defs>
</svg>
