<svg width="20" height="26" viewBox="0 0 20 26" fill="none" xmlns="http://www.w3.org/2000/svg">
<path d="M2.5 26C1.8125 26 1.22417 25.7577 0.735 25.2732C0.245 24.7879 0 24.2048 0 23.5238V11.1429C0 10.4619 0.245 9.87876 0.735 9.39343C1.22417 8.90892 1.8125 8.66667 2.5 8.66667H3.75V6.19048C3.75 4.47778 4.35958 3.01765 5.57875 1.8101C6.79708 0.603365 8.27083 0 10 0C11.7292 0 13.2033 0.603365 14.4225 1.8101C15.6408 3.01765 16.25 4.47778 16.25 6.19048V8.66667H17.5C18.1875 8.66667 18.7763 8.90892 19.2663 9.39343C19.7554 9.87876 20 10.4619 20 11.1429V23.5238C20 24.2048 19.7554 24.7879 19.2663 25.2732C18.7763 25.7577 18.1875 26 17.5 26H2.5ZM10 19.8095C10.6875 19.8095 11.2763 19.5673 11.7663 19.0828C12.2554 18.5974 12.5 18.0143 12.5 17.3333C12.5 16.6524 12.2554 16.0692 11.7663 15.5839C11.2763 15.0994 10.6875 14.8571 10 14.8571C9.3125 14.8571 8.72417 15.0994 8.235 15.5839C7.745 16.0692 7.5 16.6524 7.5 17.3333C7.5 18.0143 7.745 18.5974 8.235 19.0828C8.72417 19.5673 9.3125 19.8095 10 19.8095ZM6.25 8.66667H13.75V6.19048C13.75 5.15873 13.3854 4.28175 12.6562 3.55952C11.9271 2.8373 11.0417 2.47619 10 2.47619C8.95833 2.47619 8.07292 2.8373 7.34375 3.55952C6.61458 4.28175 6.25 5.15873 6.25 6.19048V8.66667Z" fill="white"/>
</svg>
