<svg width="26" height="24" viewBox="0 0 26 24" fill="none" xmlns="http://www.w3.org/2000/svg">
<path fill-rule="evenodd" clip-rule="evenodd" d="M0.845215 3.42857C0.845215 2.51926 1.21351 1.64719 1.86909 1.00421C2.52467 0.361223 3.41383 0 4.34095 0H11.3324C11.796 0 12.2406 0.180612 12.5684 0.502103C12.8961 0.823594 13.0803 1.25963 13.0803 1.71429C13.0803 2.16894 12.8961 2.60498 12.5684 2.92647C12.2406 3.24796 11.796 3.42857 11.3324 3.42857H4.34095V20.5714H21.8196V13.7143C21.8196 13.2596 22.0038 12.8236 22.3316 12.5021C22.6594 12.1806 23.104 12 23.5675 12C24.0311 12 24.4757 12.1806 24.8034 12.5021C25.1312 12.8236 25.3154 13.2596 25.3154 13.7143V20.5714C25.3154 21.4807 24.9471 22.3528 24.2915 22.9958C23.6359 23.6388 22.7468 24 21.8196 24H4.34095C3.41383 24 2.52467 23.6388 1.86909 22.9958C1.21351 22.3528 0.845215 21.4807 0.845215 20.5714V3.42857Z" fill="black"/>
</svg>
