<svg width="26" height="24" viewBox="0 0 26 24" fill="none" xmlns="http://www.w3.org/2000/svg">
<path fill-rule="evenodd" clip-rule="evenodd" d="M10.9774 0C10.6409 0.000148723 10.3111 0.0778247 10.0249 0.224329C9.73873 0.370832 9.50749 0.580379 9.35708 0.8295L8.04491 3H1.91542C1.43474 3 0.973752 3.15804 0.633863 3.43934C0.293975 3.72064 0.103027 4.10218 0.103027 4.5C0.103027 4.89782 0.293975 5.27936 0.633863 5.56066C0.973752 5.84196 1.43474 6 1.91542 6V21C1.91542 21.7956 2.29731 22.5587 2.97709 23.1213C3.65686 23.6839 4.57884 24 5.54019 24H20.0393C21.0006 24 21.9226 23.6839 22.6024 23.1213C23.2822 22.5587 23.6641 21.7956 23.6641 21V6C24.1447 6 24.6057 5.84196 24.9456 5.56066C25.2855 5.27936 25.4765 4.89782 25.4765 4.5C25.4765 4.10218 25.2855 3.72064 24.9456 3.43934C24.6057 3.15804 24.1447 3 23.6641 3H17.5346L16.2224 0.8295C16.072 0.580379 15.8408 0.370832 15.5546 0.224329C15.2684 0.0778247 14.9386 0.000148723 14.6021 0H10.9774ZM7.35258 9C7.35258 8.60218 7.54353 8.22064 7.88342 7.93934C8.2233 7.65804 8.68429 7.5 9.16497 7.5C9.64564 7.5 10.1066 7.65804 10.4465 7.93934C10.7864 8.22064 10.9774 8.60218 10.9774 9V18C10.9774 18.3978 10.7864 18.7794 10.4465 19.0607C10.1066 19.342 9.64564 19.5 9.16497 19.5C8.68429 19.5 8.2233 19.342 7.88342 19.0607C7.54353 18.7794 7.35258 18.3978 7.35258 18V9ZM16.4145 7.5C15.9338 7.5 15.4729 7.65804 15.133 7.93934C14.7931 8.22064 14.6021 8.60218 14.6021 9V18C14.6021 18.3978 14.7931 18.7794 15.133 19.0607C15.4729 19.342 15.9338 19.5 16.4145 19.5C16.8952 19.5 17.3562 19.342 17.6961 19.0607C18.036 18.7794 18.2269 18.3978 18.2269 18V9C18.2269 8.60218 18.036 8.22064 17.6961 7.93934C17.3562 7.65804 16.8952 7.5 16.4145 7.5Z" fill="#F00F14"/>
</svg>
