<svg width="40" height="41" viewBox="0 0 40 41" fill="none" xmlns="http://www.w3.org/2000/svg">
<path d="M22 1.00001C17.2708 0.545845 12.5343 1.79007 8.63883 4.50986C4.74334 7.22965 1.94329 11.2474 0.740119 15.8435C-0.463057 20.4396 0.00922942 25.314 2.0724 29.5936C4.13557 33.8733 7.65486 37.2787 12 39.2C14.5165 40.338 17.2387 40.9505 20 41C24.396 41.0004 28.6696 39.5524 32.16 36.88C32.5813 36.5588 32.8579 36.0836 32.9291 35.5586C33.0004 35.0337 32.8604 34.5019 32.54 34.08C32.3808 33.8686 32.1812 33.6908 31.9528 33.5571C31.7244 33.4234 31.4717 33.3363 31.2094 33.301C30.9471 33.2656 30.6804 33.2827 30.4247 33.3512C30.1691 33.4197 29.9295 33.5383 29.72 33.7C27.6458 35.2668 25.221 36.3046 22.6555 36.7237C20.09 37.1427 17.461 36.9303 14.996 36.105C12.5311 35.2796 10.3043 33.866 8.50842 31.9866C6.71254 30.1072 5.40163 27.8185 4.6891 25.3185C3.97658 22.8186 3.88389 20.1827 4.41907 17.6389C4.95425 15.0951 6.10117 12.72 7.76061 10.719C9.42005 8.71812 11.542 7.15165 13.9429 6.15517C16.3439 5.15869 18.9514 4.7622 21.54 5.00001C25.5575 5.46499 29.2597 7.4033 31.9307 10.44C34.6017 13.4767 36.0516 17.3961 36 21.44V22.8C35.9977 23.2595 35.9029 23.7138 35.7211 24.1358C35.5394 24.5577 35.2744 24.9388 34.9422 25.2561C34.6099 25.5735 34.2171 25.8206 33.7872 25.9828C33.3573 26.1449 32.8991 26.2188 32.44 26.2C31.5245 26.0995 30.6811 25.6556 30.0798 24.9579C29.4785 24.2601 29.1642 23.3604 29.2 22.44V13.8C29.2 13.2696 28.9893 12.7609 28.6142 12.3858C28.2392 12.0107 27.7305 11.8 27.2 11.8C26.7117 11.7959 26.2388 11.9705 25.8703 12.2911C25.5019 12.6116 25.2635 13.0558 25.2 13.54C23.3387 11.7872 20.8768 10.8138 18.32 10.82C16.5824 10.833 14.877 11.2906 13.3663 12.1493C11.8555 13.0079 10.5897 14.2389 9.68937 15.7252C8.78902 17.2114 8.28411 18.9034 8.22271 20.64C8.16131 22.3766 8.54546 24.1 9.33859 25.6462C10.1317 27.1923 11.3074 28.5097 12.7538 29.4728C14.2001 30.436 15.8689 31.0129 17.6013 31.1486C19.3337 31.2843 21.0719 30.9744 22.6506 30.2482C24.2293 29.522 25.5958 28.4038 26.62 27C27.2006 27.8981 27.9738 28.6555 28.8837 29.2174C29.7935 29.7792 30.8171 30.1314 31.8801 30.2482C32.943 30.365 34.0186 30.2436 35.0288 29.8928C36.039 29.542 36.9583 28.9705 37.72 28.22C38.4531 27.5225 39.0341 26.681 39.4265 25.7483C39.8188 24.8156 40.0141 23.8118 40 22.8V21.44C40.0448 16.414 38.2324 11.5483 34.9106 7.77623C31.5888 4.00413 26.9914 1.59114 22 1.00001V1.00001ZM18.36 27.18C17.1377 27.18 15.9429 26.8176 14.9266 26.1385C13.9103 25.4594 13.1182 24.4942 12.6505 23.365C12.1827 22.2358 12.0603 20.9932 12.2988 19.7944C12.5372 18.5956 13.1258 17.4944 13.9901 16.6301C14.8544 15.7658 15.9556 15.1772 17.1544 14.9388C18.3532 14.7003 19.5958 14.8227 20.725 15.2904C21.8543 15.7582 22.8195 16.5503 23.4985 17.5666C24.1776 18.5829 24.54 19.7777 24.54 21C24.5348 22.6374 23.882 24.2063 22.7241 25.3641C21.5663 26.5219 19.9975 27.1747 18.36 27.18V27.18Z" fill="white"/>
</svg>
