<svg width="115" height="115" viewBox="0 0 115 115" fill="none" xmlns="http://www.w3.org/2000/svg">
<path d="M18.2275 6.555C12.4775 8.1075 7.58998 13.225 6.38248 18.975C5.51998 23.0575 5.57748 35.8225 6.43998 36.685C7.30248 37.5475 9.37248 37.5475 10.235 36.685C10.695 36.225 10.925 33.465 10.925 28.2325C10.925 19.6075 11.615 17.1925 14.72 14.26C17.6525 11.5 19.9525 10.925 28.06 10.925C35.65 10.925 36.8 10.58 36.8 8.5675C36.8 6.21 35.3625 5.75 28.0025 5.8075C24.15 5.8075 19.7225 6.1525 18.2275 6.555Z" fill="white"/>
<path d="M79.1775 6.6125C78.6025 7.13 78.2 7.9925 78.2 8.5675C78.2 10.58 79.35 10.925 86.94 10.925C95.0475 10.925 97.3475 11.5 100.28 14.26C103.385 17.1925 104.075 19.6075 104.075 28.175C104.075 36.3975 104.362 37.375 106.72 37.375C109.077 37.375 109.365 36.225 109.135 27.1975C108.962 19.2625 108.847 18.4575 107.352 15.41C105.512 11.73 102.752 9.0275 98.9575 7.245C96.7725 6.2675 94.9325 6.0375 88.205 5.865C81.2475 5.6925 79.9825 5.8075 79.1775 6.6125Z" fill="white"/>
<path d="M32.315 42.32C31.165 43.125 31.05 43.6425 31.05 48.875C31.05 54.395 31.1075 54.625 32.545 55.6025C33.925 56.465 34.2125 56.465 35.5925 55.7175C37.03 54.9125 37.0875 54.625 37.26 49.45C37.4325 43.7 37.03 42.435 34.7875 41.745C34.0975 41.5725 33.0625 41.8025 32.315 42.32Z" fill="white"/>
<path d="M78.2 41.8025C76.36 42.435 75.9 43.93 75.9 48.99C75.9 53.3025 76.0725 54.2225 77.05 55.2C78.4875 56.6375 80.04 56.695 81.2475 55.315C81.995 54.4525 82.225 53.0725 82.225 48.7025C82.225 43.6425 82.11 43.125 80.96 42.32C79.58 41.3425 79.5225 41.3425 78.2 41.8025Z" fill="white"/>
<path d="M56.35 43.6425C56.005 44.275 55.775 48.875 55.775 54.51C55.775 65.435 55.7175 65.665 51.405 66.585C49.335 66.9875 49.1625 67.16 49.1625 69C49.1625 70.955 49.22 71.0125 51.75 71.185C55.1425 71.3575 57.96 69.8625 59.6275 66.93C60.835 64.86 60.95 63.9975 60.95 54.28C60.95 46.9775 60.72 43.7 60.26 43.24C59.225 42.205 57.04 42.435 56.35 43.6425Z" fill="white"/>
<path d="M38.2375 78.545C36.685 80.155 37.49 81.765 41.2275 84.5825C50.715 91.77 64.285 91.77 73.7725 84.5825C77.625 81.7075 78.2575 80.4425 76.705 78.7175C75.325 77.165 74.6925 77.3375 71.53 79.925C66.5275 84.065 59.455 85.8475 53.1875 84.525C49.0475 83.6625 46.46 82.3975 43.1825 79.695C40.4225 77.395 39.6175 77.2225 38.2375 78.545Z" fill="white"/>
<path d="M6.32499 80.2125C5.86499 80.7875 5.69249 83.3175 5.86499 88.9525C6.03749 95.795 6.26749 97.2325 7.35999 99.3025C9.37249 103.097 11.845 105.627 15.41 107.352C18.4575 108.847 19.32 108.962 26.795 109.135C33.7525 109.307 35.0175 109.192 35.8225 108.387C37.03 107.18 37.03 106.145 35.88 104.995C35.19 104.247 33.58 104.075 27.6575 104.075C20.93 104.075 20.125 103.96 17.3075 102.58C15.3525 101.602 13.7425 100.222 12.765 98.7275C11.3275 96.5425 11.2125 95.9675 11.04 88.6075C10.925 84.295 10.58 80.4425 10.235 80.0975C9.42999 79.0625 7.18749 79.1775 6.32499 80.2125Z" fill="white"/>
<path d="M104.765 80.04C104.305 80.5 104.075 83.03 104.075 87.63C104.075 95.335 103.328 97.865 100.28 100.74C97.29 103.5 95.0475 104.075 86.94 104.075C78.775 104.075 77.74 104.478 78.43 107.238C78.9475 109.193 80.3275 109.423 89.01 109.135C95.6225 108.963 96.715 108.79 99.59 107.353C103.328 105.513 106.03 102.695 107.698 98.9575C108.675 96.83 108.963 94.76 109.135 88.665C109.423 80.5575 109.078 79.35 106.72 79.35C106.03 79.35 105.168 79.6375 104.765 80.04Z" fill="white"/>
</svg>
